name GIL11_static.mot
datacolumns 141
datarows 4
range 0.86666667 0.89166665
endheader

                time	           pelvis_tx	           pelvis_ty	           pelvis_tz	         pelvis_tilt	         pelvis_list	     pelvis_rotation	       hip_flexion_r	     hip_adduction_r	      hip_rotation_r	        knee_angle_r	       ankle_angle_r	    subtalar_angle_r	         mtp_angle_r	       hip_flexion_l	     hip_adduction_l	      hip_rotation_l	        knee_angle_l	       ankle_angle_l	    subtalar_angle_l	         mtp_angle_l	    lumbar_extension	      lumbar_bending	     lumbar_rotation	    ground_marker_px	    ground_marker_py	    ground_marker_pz	    ground_marker_px	    ground_marker_py	    ground_marker_pz	    ground_marker_px	    ground_marker_py	    ground_marker_pz	    ground_marker_px	    ground_marker_py	    ground_marker_pz	    ground_marker_px	    ground_marker_py	    ground_marker_pz	    ground_marker_px	    ground_marker_py	    ground_marker_pz	    ground_marker_px	    ground_marker_py	    ground_marker_pz	    ground_marker_px	    ground_marker_py	    ground_marker_pz	    ground_marker_px	    ground_marker_py	    ground_marker_pz	    ground_marker_px	    ground_marker_py	    ground_marker_pz	    ground_marker_px	    ground_marker_py	    ground_marker_pz	    ground_marker_px	    ground_marker_py	    ground_marker_pz	    ground_marker_px	    ground_marker_py	    ground_marker_pz	    ground_marker_px	    ground_marker_py	    ground_marker_pz	    ground_marker_px	    ground_marker_py	    ground_marker_pz	    ground_marker_px	    ground_marker_py	    ground_marker_pz	    ground_marker_px	    ground_marker_py	    ground_marker_pz	    ground_marker_px	    ground_marker_py	    ground_marker_pz	    ground_marker_px	    ground_marker_py	    ground_marker_pz	    ground_marker_px	    ground_marker_py	    ground_marker_pz	    ground_marker_px	    ground_marker_py	    ground_marker_pz	    ground_marker_px	    ground_marker_py	    ground_marker_pz	    ground_marker_px	    ground_marker_py	    ground_marker_pz	    ground_marker_px	    ground_marker_py	    ground_marker_pz	    ground_marker_px	    ground_marker_py	    ground_marker_pz	    ground_marker_px	    ground_marker_py	    ground_marker_pz	    ground_marker_px	    ground_marker_py	    ground_marker_pz	    ground_marker_px	    ground_marker_py	    ground_marker_pz	    ground_marker_px	    ground_marker_py	    ground_marker_pz	    ground_marker_px	    ground_marker_py	    ground_marker_pz	    ground_marker_px	    ground_marker_py	    ground_marker_pz	    ground_marker_px	    ground_marker_py	    ground_marker_pz	    ground_marker_px	    ground_marker_py	    ground_marker_pz	    ground_marker_px	    ground_marker_py	    ground_marker_pz	    ground_marker_px	    ground_marker_py	    ground_marker_pz	    ground_marker_px	    ground_marker_py	    ground_marker_pz	    ground_marker_px	    ground_marker_py	    ground_marker_pz	    ground_marker_px	    ground_marker_py	    ground_marker_pz	    ground_marker_px	    ground_marker_py	    ground_marker_pz	
          0.86666667	          1.51616395	          0.88255608	         -0.27008805	         -7.08237076	          0.98478031	          1.27489889	          7.99476814	         -6.55056572	          0.88263035	         -3.27138925	          1.48280513	          0.00000000	          0.00000000	          8.69102097	         -4.96826935	          5.82157087	         -5.92839956	          1.53295243	          0.00000000	          0.00000000	          4.70662260	         -3.41345716	          2.27935600	          1.42757058	          0.82253230	         -0.27018633	          1.42400479	          0.81117105	         -0.19429369	          1.41666329	          0.81483942	         -0.34619978	          1.43061697	          0.43677357	         -0.16029139	          1.42680120	          0.43674237	         -0.38822055	          1.41585779	          0.06473306	         -0.12582003	          1.39759660	          0.06755124	         -0.42290533	          1.51616395	          0.88255608	         -0.27008805	          1.51798189	          0.87978208	         -0.15215434	          1.51434600	          0.88533008	         -0.38802174	          1.32330871	          0.95111519	         -0.23356545	          1.31903100	          0.94857115	         -0.28808397	          1.43235040	          0.44222847	         -0.10056502	          1.43182242	          0.44347957	         -0.44762927	          1.43199635	          0.43439648	         -0.21792476	          1.43855774	          0.44211060	         -0.32399207	          1.39592004	          0.06892698	         -0.08909267	          1.38306856	          0.07237487	         -0.46201634	          1.42991233	          0.06784546	         -0.15639836	          1.40468919	          0.07486369	         -0.39466545	          1.37606001	          0.03355036	         -0.15742984	          1.34701729	          0.04733799	         -0.41175422	          1.50889766	          1.32175553	         -0.26794666	          1.55192840	          1.25428104	         -0.27190226	          1.38825631	          1.38075435	         -0.25985998	          1.51527703	          1.32700694	         -0.21571475	          1.50919640	          1.32332122	         -0.32187018	          1.50842559	          0.04079009	         -0.06736293	          1.50091314	          0.04377208	         -0.45742321	          1.58655083	          0.57509708	         -0.18499775	          1.46482551	          0.58261198	         -0.51890677	          1.51992571	          0.63067317	         -0.13422443	          1.40470803	          0.62791365	         -0.45590648	          1.50890803	          0.54377735	         -0.12755789	          1.41467488	          0.53861552	         -0.45110539	          1.38265252	          0.15144555	         -0.02885736	          1.49354243	          0.18874003	         -0.40647128	          1.39054227	          0.15732452	         -0.07233718	          1.45234787	          0.18841860	         -0.41280028	
          0.87500000	          1.51612079	          0.88260317	         -0.27007973	         -7.05080605	          1.02545464	          1.26836085	          7.95845032	         -6.60073805	          0.92351615	         -3.26167035	          1.48301125	          0.00000000	          0.00000000	          8.64170074	         -4.92765617	          5.82439518	         -5.92002869	          1.38801479	          0.00000000	          0.00000000	          4.69621658	         -3.38458276	          2.29463673	          1.42707169	          0.82190889	         -0.26925758	          1.42397511	          0.81111962	         -0.19436197	          1.41668320	          0.81488013	         -0.34626815	          1.43054783	          0.43678641	         -0.16026841	          1.42672324	          0.43670613	         -0.38826007	          1.41581070	          0.06475630	         -0.12583649	          1.39747882	          0.06756174	         -0.42294589	          1.51612079	          0.88260317	         -0.27007973	          1.51789963	          0.87975639	         -0.15218699	          1.51434195	          0.88544995	         -0.38797247	          1.32320344	          0.95103627	         -0.23346385	          1.31922805	          0.94842440	         -0.28795654	          1.43230414	          0.44225684	         -0.10054412	          1.43176961	          0.44343662	         -0.44766745	          1.43229449	          0.43411115	         -0.21760547	          1.43868732	          0.44222203	         -0.32392719	          1.39588702	          0.06894546	         -0.08910096	          1.38296521	          0.07238700	         -0.46206206	          1.42985868	          0.06792984	         -0.15640923	          1.40456939	          0.07491909	         -0.39468440	          1.37603629	          0.03356283	         -0.15738301	          1.34644651	          0.04773526	         -0.41160819	          1.50870252	          1.32181227	         -0.26805553	          1.55175710	          1.25435734	         -0.27208459	          1.38786054	          1.38084304	         -0.25984734	          1.51508129	          1.32700968	         -0.21571554	          1.50899947	          1.32343626	         -0.32207879	          1.50837839	          0.04079442	         -0.06738498	          1.50095522	          0.04372350	         -0.45741406	          1.58647478	          0.57512450	         -0.18497014	          1.46475911	          0.58261675	         -0.51892626	          1.51985049	          0.63070828	         -0.13420494	          1.40462124	          0.62793434	         -0.45594600	          1.50905347	          0.54374003	         -0.12744121	          1.41467834	          0.53860515	         -0.45109099	          1.38261366	          0.15145251	         -0.02887103	          1.49358058	          0.18874075	         -0.40644160	          1.39047945	          0.15741172	         -0.07230737	          1.45221484	          0.18852785	         -0.41277784	
          0.88333333	          1.51607764	          0.88264740	         -0.27008221	         -7.02117348	          1.05483508	          1.26011848	          7.91577911	         -6.64634037	          1.00862014	         -3.24188399	          1.49090552	          0.00000000	          0.00000000	          8.59890938	         -4.89790154	          5.81756067	         -5.91476679	          1.28826761	          0.00000000	          0.00000000	          4.64590597	         -3.39262700	          2.37673664	          1.42658472	          0.82130945	         -0.26827601	          1.42394578	          0.81108326	         -0.19442371	          1.41669798	          0.81490654	         -0.34633043	          1.43042588	          0.43680346	         -0.16019394	          1.42666662	          0.43669260	         -0.38828817	          1.41571975	          0.06478823	         -0.12587439	          1.39739120	          0.06757646	         -0.42300138	          1.51607764	          0.88264740	         -0.27008221	          1.51782167	          0.87975085	         -0.15222953	          1.51433361	          0.88554388	         -0.38793489	          1.32309556	          0.95097262	         -0.23335625	          1.31942606	          0.94827497	         -0.28781569	          1.43225479	          0.44229680	         -0.10047394	          1.43172526	          0.44341636	         -0.44769529	          1.43242073	          0.43397707	         -0.21743369	          1.43671453	          0.44205144	         -0.32403064	          1.39584005	          0.06896538	         -0.08911368	          1.38288450	          0.07240585	         -0.46211958	          1.42983735	          0.06795914	         -0.15641175	          1.40441656	          0.07498012	         -0.39471114	          1.37602794	          0.03359046	         -0.15734684	          1.34611416	          0.04800737	         -0.41152328	          1.50834632	          1.32189167	         -0.26817578	          1.55136847	          1.25442052	         -0.27227685	          1.38780320	          1.38085365	         -0.25977629	          1.51479125	          1.32707119	         -0.21577926	          1.50857806	          1.32353151	         -0.32226095	          1.50833356	          0.04082258	         -0.06740110	          1.50099778	          0.04369038	         -0.45741224	          1.58639860	          0.57517987	         -0.18490861	          1.46454918	          0.58257884	         -0.51903236	          1.51983714	          0.63070369	         -0.13417736	          1.40452957	          0.62796170	         -0.45598614	          1.50913346	          0.54371476	         -0.12737004	          1.41380286	          0.53889436	         -0.45119146	          1.38256252	          0.15144368	         -0.02887553	          1.49363840	          0.18872510	         -0.40642324	          1.39044321	          0.15740368	         -0.07229151	          1.45221174	          0.18853958	         -0.41282469	
          0.89166665	          1.51602030	          0.88266927	         -0.27009717	         -6.99956894	          1.06412923	          1.25451839	          7.87863350	         -6.67372704	          1.10884917	         -3.21735477	          1.50865126	          0.00000000	          0.00000000	          8.57623291	         -4.88910723	          5.80313730	         -5.91463709	          1.25107288	          0.00000000	          0.00000000	          4.59341097	         -3.50857949	          2.48135853	          1.42643464	          0.82098812	         -0.26732618	          1.42390430	          0.81106132	         -0.19446072	          1.41667724	          0.81490040	         -0.34636804	          1.43027973	          0.43681714	         -0.16009539	          1.42664433	          0.43670225	         -0.38830820	          1.41562212	          0.06482722	         -0.12592065	          1.39737022	          0.06757870	         -0.42302045	          1.51602030	          0.88266927	         -0.27009717	          1.51774776	          0.87975985	         -0.15227547	          1.51429272	          0.88557869	         -0.38791886	          1.32300949	          0.95092487	         -0.23327877	          1.31962645	          0.94811523	         -0.28768107	          1.43220675	          0.44233334	         -0.10038059	          1.43169618	          0.44342339	         -0.44771612	          1.43234658	          0.43401530	         -0.21737531	          1.43256760	          0.44180867	         -0.32411826	          1.39580178	          0.06898852	         -0.08912610	          1.38285863	          0.07240806	         -0.46213681	          1.42981541	          0.06807443	         -0.15642440	          1.40446043	          0.07497139	         -0.39472532	          1.37603343	          0.03361490	         -0.15733327	          1.34607244	          0.04809592	         -0.41150966	          1.50799930	          1.32181644	         -0.26831606	          1.55097544	          1.25431287	         -0.27236822	          1.38777447	          1.38074064	         -0.25985968	          1.51454520	          1.32709217	         -0.21585464	          1.50813103	          1.32335281	         -0.32249063	          1.50829613	          0.04087670	         -0.06740795	          1.50103199	          0.04367159	         -0.45741683	          1.58632994	          0.57526177	         -0.18483798	          1.46423447	          0.58250386	         -0.51920265	          1.51981163	          0.63076812	         -0.13417219	          1.40439677	          0.62796444	         -0.45603395	          1.50907075	          0.54373562	         -0.12733141	          1.41203403	          0.53957009	         -0.45132640	          1.38251150	          0.15142393	         -0.02886407	          1.49369478	          0.18869777	         -0.40641478	          1.39038432	          0.15733656	         -0.07216647	          1.45222032	          0.18860374	         -0.41275916	
